<svg xmlns="http://www.w3.org/2000/svg" width="970.741" height="328.205" viewBox="0 0 970.741 328.205">
  <g id="Group_6537" data-name="Group 6537" transform="translate(-514.579 -584.294)">
    <g id="Group_6532" data-name="Group 6532">
      <path id="Path_6975" data-name="Path 6975" d="M1149.6,584.3a21.177,21.177,0,0,0-21.5,21.5V772.6c0,33.3-8.3,58.6-24.6,75.1-16.3,16.6-38.7,25-66.6,25-28.8,0-51.6-8.8-67.9-26.2-16.3-17.5-24.6-43.1-24.6-76.1V605.8a21.135,21.135,0,0,0-6.2-15.3,20.811,20.811,0,0,0-15.3-6.2,20.331,20.331,0,0,0-14.8,6.2,20.811,20.811,0,0,0-6.2,15.3V772.6c0,22.4,3.2,42.6,9.6,60,6.4,17.5,15.7,32.3,27.5,44.1a115.7,115.7,0,0,0,42.5,26.8c16.3,5.9,34.6,9,54.3,9,20.1,0,38.5-3.1,54.8-9.2a115.544,115.544,0,0,0,42.5-27.3c11.8-12,21.1-27,27.5-44.8,6.4-17.6,9.6-38.3,9.6-61.3V605.8a21.135,21.135,0,0,0-6.2-15.3,18.834,18.834,0,0,0-14.4-6.2Z" fill="#fff"/>
      <path id="Path_6976" data-name="Path 6976" d="M1479.7,874a19.021,19.021,0,0,0-13.9-5.7H1289.9v-103h153.5a19.445,19.445,0,0,0,13.9-33.2,18.608,18.608,0,0,0-14-6H1289.8V625.9h173.7a19.6,19.6,0,1,0,0-39.2H1268.4a20.332,20.332,0,0,0-14.8,6.2,20.811,20.811,0,0,0-6.2,15.3V886.3a20.972,20.972,0,0,0,6.2,15.3,20.332,20.332,0,0,0,14.8,6.2h197.3a19.463,19.463,0,0,0,19.6-19.6,18.616,18.616,0,0,0-5.6-14.2Z" fill="#fff"/>
    </g>
    <path id="Path_6977" data-name="Path 6977" d="M666.2,906.1a155.127,155.127,0,0,0,29.8-1.4c21.8-3.1,30.8-29.5,15.3-45.1h0a26.927,26.927,0,0,0-22.7-7.5,102.182,102.182,0,0,1-14.8,1,106.1,106.1,0,1,1,0-212.2,118.307,118.307,0,0,1,14.7,1,26.624,26.624,0,0,0,22.7-7.5h0c15.5-15.5,6.6-42-15.1-45.1a163.714,163.714,0,0,0-22.3-1.6c-89.9,0-162.6,74.8-159.1,165.4C517.9,835.4,584.1,902.3,666.2,906.1Z" fill="#fff"/>
    <g id="Group_6533" data-name="Group 6533">
      <circle id="Ellipse_917" data-name="Ellipse 917" cx="11.8" cy="11.8" r="11.8" transform="translate(705.7 775)" fill="#fff"/>
      <circle id="Ellipse_918" data-name="Ellipse 918" cx="11.8" cy="11.8" r="11.8" transform="translate(706.6 773.8)" fill="#fff"/>
      <circle id="Ellipse_919" data-name="Ellipse 919" cx="11.8" cy="11.8" r="11.8" transform="translate(707.4 772.5)" fill="#fff"/>
      <circle id="Ellipse_920" data-name="Ellipse 920" cx="11.8" cy="11.8" r="11.8" transform="translate(708.2 771.2)" fill="#fff"/>
      <circle id="Ellipse_921" data-name="Ellipse 921" cx="11.8" cy="11.8" r="11.8" transform="translate(708.9 769.9)" fill="#fff"/>
      <circle id="Ellipse_922" data-name="Ellipse 922" cx="11.8" cy="11.8" r="11.8" transform="translate(709.6 768.5)" fill="#fff"/>
      <circle id="Ellipse_923" data-name="Ellipse 923" cx="11.8" cy="11.8" r="11.8" transform="translate(710.3 767.1)" fill="#fff"/>
      <circle id="Ellipse_924" data-name="Ellipse 924" cx="11.8" cy="11.8" r="11.8" transform="translate(710.9 765.7)" fill="#fff"/>
      <circle id="Ellipse_925" data-name="Ellipse 925" cx="11.8" cy="11.8" r="11.8" transform="translate(711.5 764.3)" fill="#fff"/>
      <circle id="Ellipse_926" data-name="Ellipse 926" cx="11.8" cy="11.8" r="11.8" transform="translate(712.1 762.9)" fill="#fff"/>
      <circle id="Ellipse_927" data-name="Ellipse 927" cx="11.8" cy="11.8" r="11.8" transform="translate(712.7 761.5)" fill="#fff"/>
      <circle id="Ellipse_928" data-name="Ellipse 928" cx="11.8" cy="11.8" r="11.8" transform="translate(713.2 760.1)" fill="#fff"/>
      <circle id="Ellipse_929" data-name="Ellipse 929" cx="11.8" cy="11.8" r="11.8" transform="translate(713.8 758.7)" fill="#fff"/>
      <circle id="Ellipse_930" data-name="Ellipse 930" cx="11.8" cy="11.8" r="11.8" transform="translate(714.2 757.2)" fill="#fff"/>
      <circle id="Ellipse_931" data-name="Ellipse 931" cx="11.8" cy="11.8" r="11.8" transform="translate(714.7 755.8)" fill="#fff"/>
      <circle id="Ellipse_932" data-name="Ellipse 932" cx="11.8" cy="11.8" r="11.8" transform="translate(715.1 754.3)" fill="#fff"/>
      <circle id="Ellipse_933" data-name="Ellipse 933" cx="11.8" cy="11.8" r="11.8" transform="translate(715.5 752.9)" fill="#fff"/>
      <circle id="Ellipse_934" data-name="Ellipse 934" cx="11.8" cy="11.8" r="11.8" transform="translate(715.8 751.4)" fill="#fff"/>
      <circle id="Ellipse_935" data-name="Ellipse 935" cx="11.8" cy="11.8" r="11.8" transform="translate(716.1 750)" fill="#fff"/>
      <circle id="Ellipse_936" data-name="Ellipse 936" cx="11.8" cy="11.8" r="11.8" transform="translate(716.4 748.5)" fill="#fff"/>
      <circle id="Ellipse_937" data-name="Ellipse 937" cx="11.8" cy="11.8" r="11.8" transform="translate(716.6 747.1)" fill="#fff"/>
      <circle id="Ellipse_938" data-name="Ellipse 938" cx="11.8" cy="11.8" r="11.8" transform="translate(716.8 745.6)" fill="#fff"/>
      <circle id="Ellipse_939" data-name="Ellipse 939" cx="11.8" cy="11.8" r="11.8" transform="translate(717 744.1)" fill="#fff"/>
      <circle id="Ellipse_940" data-name="Ellipse 940" cx="11.8" cy="11.8" r="11.8" transform="translate(717.1 742.6)" fill="#fff"/>
      <circle id="Ellipse_941" data-name="Ellipse 941" cx="11.8" cy="11.8" r="11.8" transform="translate(717.2 741.1)" fill="#fff"/>
      <circle id="Ellipse_942" data-name="Ellipse 942" cx="11.8" cy="11.8" r="11.8" transform="translate(717.3 739.6)" fill="#fff"/>
      <circle id="Ellipse_943" data-name="Ellipse 943" cx="11.8" cy="11.8" r="11.8" transform="translate(717.3 738.1)" fill="#fff"/>
      <circle id="Ellipse_944" data-name="Ellipse 944" cx="11.8" cy="11.8" r="11.8" transform="translate(717.3 736.6)" fill="#fff"/>
      <circle id="Ellipse_945" data-name="Ellipse 945" cx="11.8" cy="11.8" r="11.8" transform="translate(717.2 735)" fill="#fff"/>
      <circle id="Ellipse_946" data-name="Ellipse 946" cx="11.8" cy="11.8" r="11.8" transform="translate(717.3 733.5)" fill="#fff"/>
      <circle id="Ellipse_947" data-name="Ellipse 947" cx="11.8" cy="11.8" r="11.8" transform="translate(717.3 731.9)" fill="#fff"/>
      <circle id="Ellipse_948" data-name="Ellipse 948" cx="11.8" cy="11.8" r="11.8" transform="translate(717.2 730.4)" fill="#fff"/>
      <circle id="Ellipse_949" data-name="Ellipse 949" cx="11.8" cy="11.8" r="11.8" transform="translate(717.1 728.8)" fill="#fff"/>
      <circle id="Ellipse_950" data-name="Ellipse 950" cx="11.8" cy="11.8" r="11.8" transform="translate(717 727.3)" fill="#fff"/>
      <circle id="Ellipse_951" data-name="Ellipse 951" cx="11.8" cy="11.8" r="11.8" transform="translate(716.9 725.8)" fill="#fff"/>
      <circle id="Ellipse_952" data-name="Ellipse 952" cx="11.8" cy="11.8" r="11.8" transform="translate(716.7 724.3)" fill="#fff"/>
      <circle id="Ellipse_953" data-name="Ellipse 953" cx="11.8" cy="11.8" r="11.8" transform="translate(716.5 722.8)" fill="#fff"/>
      <circle id="Ellipse_954" data-name="Ellipse 954" cx="11.8" cy="11.8" r="11.8" transform="translate(716.2 721.3)" fill="#fff"/>
      <circle id="Ellipse_955" data-name="Ellipse 955" cx="11.8" cy="11.8" r="11.8" transform="translate(716 719.9)" fill="#fff"/>
      <circle id="Ellipse_956" data-name="Ellipse 956" cx="11.8" cy="11.8" r="11.8" transform="translate(715.6 718.4)" fill="#fff"/>
      <circle id="Ellipse_957" data-name="Ellipse 957" cx="11.8" cy="11.8" r="11.8" transform="translate(715.3 716.9)" fill="#fff"/>
      <circle id="Ellipse_958" data-name="Ellipse 958" cx="11.8" cy="11.8" r="11.8" transform="translate(714.9 715.5)" fill="#fff"/>
      <circle id="Ellipse_959" data-name="Ellipse 959" cx="11.8" cy="11.8" r="11.8" transform="translate(714.5 714.1)" fill="#fff"/>
      <circle id="Ellipse_960" data-name="Ellipse 960" cx="11.8" cy="11.8" r="11.8" transform="translate(714.1 712.7)" fill="#fff"/>
      <circle id="Ellipse_961" data-name="Ellipse 961" cx="11.8" cy="11.8" r="11.8" transform="translate(713.6 711.2)" fill="#fff"/>
      <circle id="Ellipse_962" data-name="Ellipse 962" cx="11.8" cy="11.8" r="11.8" transform="translate(713.1 709.8)" fill="#fff"/>
      <circle id="Ellipse_963" data-name="Ellipse 963" cx="11.8" cy="11.8" r="11.8" transform="translate(712.6 708.4)" fill="#fff"/>
      <circle id="Ellipse_964" data-name="Ellipse 964" cx="11.8" cy="11.8" r="11.8" transform="translate(712 707.1)" fill="#fff"/>
      <circle id="Ellipse_965" data-name="Ellipse 965" cx="11.8" cy="11.8" r="11.8" transform="translate(711.5 705.7)" fill="#fff"/>
      <circle id="Ellipse_966" data-name="Ellipse 966" cx="11.8" cy="11.8" r="11.8" transform="translate(710.9 704.3)" fill="#fff"/>
      <circle id="Ellipse_967" data-name="Ellipse 967" cx="11.8" cy="11.8" r="11.8" transform="translate(710.2 702.9)" fill="#fff"/>
      <circle id="Ellipse_968" data-name="Ellipse 968" cx="11.8" cy="11.8" r="11.8" transform="translate(709.5 701.6)" fill="#fff"/>
      <circle id="Ellipse_969" data-name="Ellipse 969" cx="11.8" cy="11.8" r="11.8" transform="translate(708.8 700.2)" fill="#fff"/>
      <circle id="Ellipse_970" data-name="Ellipse 970" cx="11.8" cy="11.8" r="11.8" transform="translate(708.1 698.9)" fill="#fff"/>
      <circle id="Ellipse_971" data-name="Ellipse 971" cx="11.8" cy="11.8" r="11.8" transform="translate(707.3 697.6)" fill="#fff"/>
      <circle id="Ellipse_972" data-name="Ellipse 972" cx="11.8" cy="11.8" r="11.8" transform="translate(706.5 696.4)" fill="#fff"/>
      <circle id="Ellipse_973" data-name="Ellipse 973" cx="11.8" cy="11.8" r="11.8" transform="translate(705.5 695.2)" fill="#fff"/>
    </g>
    <g id="Group_6534" data-name="Group 6534">
      <circle id="Ellipse_974" data-name="Ellipse 974" cx="6.2" cy="6.2" r="6.2" transform="translate(675.1 761.9)" fill="#fff"/>
      <circle id="Ellipse_975" data-name="Ellipse 975" cx="6.2" cy="6.2" r="6.2" transform="translate(675.5 761.2)" fill="#fff"/>
      <circle id="Ellipse_976" data-name="Ellipse 976" cx="6.2" cy="6.2" r="6.2" transform="translate(676 760.5)" fill="#fff"/>
      <circle id="Ellipse_977" data-name="Ellipse 977" cx="6.2" cy="6.2" r="6.2" transform="translate(676.4 759.9)" fill="#fff"/>
      <circle id="Ellipse_978" data-name="Ellipse 978" cx="6.2" cy="6.2" r="6.2" transform="translate(676.8 759.1)" fill="#fff"/>
      <circle id="Ellipse_979" data-name="Ellipse 979" cx="6.2" cy="6.2" r="6.2" transform="translate(677.1 758.4)" fill="#fff"/>
      <circle id="Ellipse_980" data-name="Ellipse 980" cx="6.2" cy="6.2" r="6.2" transform="translate(677.5 757.7)" fill="#fff"/>
      <circle id="Ellipse_981" data-name="Ellipse 981" cx="6.2" cy="6.2" r="6.2" transform="translate(677.8 756.9)" fill="#fff"/>
      <circle id="Ellipse_982" data-name="Ellipse 982" cx="6.2" cy="6.2" r="6.2" transform="translate(678.2 756.2)" fill="#fff"/>
      <circle id="Ellipse_983" data-name="Ellipse 983" cx="6.2" cy="6.2" r="6.2" transform="translate(678.5 755.4)" fill="#fff"/>
      <circle id="Ellipse_984" data-name="Ellipse 984" cx="6.2" cy="6.2" r="6.2" transform="translate(678.8 754.7)" fill="#fff"/>
      <circle id="Ellipse_985" data-name="Ellipse 985" cx="6.2" cy="6.2" r="6.2" transform="translate(679.1 753.9)" fill="#fff"/>
      <circle id="Ellipse_986" data-name="Ellipse 986" cx="6.2" cy="6.2" r="6.2" transform="translate(679.3 753.2)" fill="#fff"/>
      <circle id="Ellipse_987" data-name="Ellipse 987" cx="6.2" cy="6.2" r="6.2" transform="translate(679.6 752.4)" fill="#fff"/>
      <circle id="Ellipse_988" data-name="Ellipse 988" cx="6.2" cy="6.2" r="6.2" transform="translate(679.8 751.7)" fill="#fff"/>
      <circle id="Ellipse_989" data-name="Ellipse 989" cx="6.2" cy="6.2" r="6.2" transform="translate(680 750.9)" fill="#fff"/>
      <circle id="Ellipse_990" data-name="Ellipse 990" cx="6.2" cy="6.2" r="6.2" transform="translate(680.2 750.1)" fill="#fff"/>
      <circle id="Ellipse_991" data-name="Ellipse 991" cx="6.2" cy="6.2" r="6.2" transform="translate(680.4 749.4)" fill="#fff"/>
      <circle id="Ellipse_992" data-name="Ellipse 992" cx="6.2" cy="6.2" r="6.2" transform="translate(680.6 748.6)" fill="#fff"/>
      <circle id="Ellipse_993" data-name="Ellipse 993" cx="6.2" cy="6.2" r="6.2" transform="translate(680.7 747.8)" fill="#fff"/>
      <circle id="Ellipse_994" data-name="Ellipse 994" cx="6.2" cy="6.2" r="6.2" transform="translate(680.9 747)" fill="#fff"/>
      <circle id="Ellipse_995" data-name="Ellipse 995" cx="6.2" cy="6.2" r="6.2" transform="translate(681 746.3)" fill="#fff"/>
      <circle id="Ellipse_996" data-name="Ellipse 996" cx="6.2" cy="6.2" r="6.2" transform="translate(681.1 745.5)" fill="#fff"/>
      <circle id="Ellipse_997" data-name="Ellipse 997" cx="6.2" cy="6.2" r="6.2" transform="translate(681.1 744.7)" fill="#fff"/>
      <circle id="Ellipse_998" data-name="Ellipse 998" cx="6.2" cy="6.2" r="6.2" transform="translate(681.2 743.9)" fill="#fff"/>
      <circle id="Ellipse_999" data-name="Ellipse 999" cx="6.2" cy="6.2" r="6.2" transform="translate(681.2 743.1)" fill="#fff"/>
      <circle id="Ellipse_1000" data-name="Ellipse 1000" cx="6.2" cy="6.2" r="6.2" transform="translate(681.2 742.3)" fill="#fff"/>
      <circle id="Ellipse_1001" data-name="Ellipse 1001" cx="6.2" cy="6.2" r="6.2" transform="translate(681.2 741.5)" fill="#fff"/>
      <circle id="Ellipse_1002" data-name="Ellipse 1002" cx="6.2" cy="6.2" r="6.2" transform="translate(681.2 740.7)" fill="#fff"/>
      <circle id="Ellipse_1003" data-name="Ellipse 1003" cx="6.2" cy="6.2" r="6.2" transform="translate(681.2 739.8)" fill="#fff"/>
      <circle id="Ellipse_1004" data-name="Ellipse 1004" cx="6.2" cy="6.2" r="6.2" transform="translate(681.2 739)" fill="#fff"/>
      <circle id="Ellipse_1005" data-name="Ellipse 1005" cx="6.2" cy="6.2" r="6.2" transform="translate(681.2 738.2)" fill="#fff"/>
      <circle id="Ellipse_1006" data-name="Ellipse 1006" cx="6.2" cy="6.2" r="6.2" transform="translate(681.1 737.4)" fill="#fff"/>
      <circle id="Ellipse_1007" data-name="Ellipse 1007" cx="6.2" cy="6.2" r="6.2" transform="translate(681.1 736.6)" fill="#fff"/>
      <circle id="Ellipse_1008" data-name="Ellipse 1008" cx="6.2" cy="6.2" r="6.2" transform="translate(681 735.8)" fill="#fff"/>
      <circle id="Ellipse_1009" data-name="Ellipse 1009" cx="6.2" cy="6.2" r="6.2" transform="translate(680.9 735)" fill="#fff"/>
      <circle id="Ellipse_1010" data-name="Ellipse 1010" cx="6.2" cy="6.2" r="6.2" transform="translate(680.8 734.2)" fill="#fff"/>
      <circle id="Ellipse_1011" data-name="Ellipse 1011" cx="6.2" cy="6.2" r="6.2" transform="translate(680.6 733.4)" fill="#fff"/>
      <circle id="Ellipse_1012" data-name="Ellipse 1012" cx="6.2" cy="6.2" r="6.2" transform="translate(680.5 732.6)" fill="#fff"/>
      <circle id="Ellipse_1013" data-name="Ellipse 1013" cx="6.2" cy="6.2" r="6.2" transform="translate(680.3 731.8)" fill="#fff"/>
      <circle id="Ellipse_1014" data-name="Ellipse 1014" cx="6.2" cy="6.2" r="6.2" transform="translate(680.2 731.1)" fill="#fff"/>
      <circle id="Ellipse_1015" data-name="Ellipse 1015" cx="6.2" cy="6.2" r="6.2" transform="translate(680 730.3)" fill="#fff"/>
      <circle id="Ellipse_1016" data-name="Ellipse 1016" cx="6.2" cy="6.2" r="6.2" transform="translate(679.7 729.5)" fill="#fff"/>
      <circle id="Ellipse_1017" data-name="Ellipse 1017" cx="6.2" cy="6.2" r="6.2" transform="translate(679.5 728.8)" fill="#fff"/>
      <circle id="Ellipse_1018" data-name="Ellipse 1018" cx="6.2" cy="6.2" r="6.2" transform="translate(679.3 728)" fill="#fff"/>
      <circle id="Ellipse_1019" data-name="Ellipse 1019" cx="6.2" cy="6.2" r="6.2" transform="translate(679 727.3)" fill="#fff"/>
      <circle id="Ellipse_1020" data-name="Ellipse 1020" cx="6.2" cy="6.2" r="6.2" transform="translate(678.7 726.6)" fill="#fff"/>
      <circle id="Ellipse_1021" data-name="Ellipse 1021" cx="6.2" cy="6.2" r="6.2" transform="translate(678.4 725.8)" fill="#fff"/>
      <circle id="Ellipse_1022" data-name="Ellipse 1022" cx="6.2" cy="6.2" r="6.2" transform="translate(678.1 725.1)" fill="#fff"/>
      <circle id="Ellipse_1023" data-name="Ellipse 1023" cx="6.2" cy="6.2" r="6.2" transform="translate(677.8 724.4)" fill="#fff"/>
      <circle id="Ellipse_1024" data-name="Ellipse 1024" cx="6.2" cy="6.2" r="6.2" transform="translate(677.5 723.6)" fill="#fff"/>
      <circle id="Ellipse_1025" data-name="Ellipse 1025" cx="6.2" cy="6.2" r="6.2" transform="translate(677.1 722.9)" fill="#fff"/>
      <circle id="Ellipse_1026" data-name="Ellipse 1026" cx="6.2" cy="6.2" r="6.2" transform="translate(676.7 722.2)" fill="#fff"/>
      <circle id="Ellipse_1027" data-name="Ellipse 1027" cx="6.2" cy="6.2" r="6.2" transform="translate(676.3 721.5)" fill="#fff"/>
      <circle id="Ellipse_1028" data-name="Ellipse 1028" cx="6.2" cy="6.2" r="6.2" transform="translate(675.9 720.8)" fill="#fff"/>
      <circle id="Ellipse_1029" data-name="Ellipse 1029" cx="6.2" cy="6.2" r="6.2" transform="translate(675.5 720.2)" fill="#fff"/>
      <circle id="Ellipse_1030" data-name="Ellipse 1030" cx="6.2" cy="6.2" r="6.2" transform="translate(675 719.5)" fill="#fff"/>
    </g>
    <g id="Group_6535" data-name="Group 6535">
      <circle id="Ellipse_1031" data-name="Ellipse 1031" cx="16" cy="16" r="16" transform="translate(746.7 804.2)" fill="#fff"/>
      <circle id="Ellipse_1032" data-name="Ellipse 1032" cx="16" cy="16" r="16" transform="translate(748.3 802.1)" fill="#fff"/>
      <circle id="Ellipse_1033" data-name="Ellipse 1033" cx="16" cy="16" r="16" transform="translate(749.9 799.8)" fill="#fff"/>
      <circle id="Ellipse_1034" data-name="Ellipse 1034" cx="16" cy="16" r="16" transform="translate(751.3 797.5)" fill="#fff"/>
      <circle id="Ellipse_1035" data-name="Ellipse 1035" cx="16" cy="16" r="16" transform="translate(752.5 795.1)" fill="#fff"/>
      <circle id="Ellipse_1036" data-name="Ellipse 1036" cx="16" cy="16" r="16" transform="translate(753.7 792.7)" fill="#fff"/>
      <circle id="Ellipse_1037" data-name="Ellipse 1037" cx="16" cy="16" r="16" transform="translate(754.8 790.4)" fill="#fff"/>
      <circle id="Ellipse_1038" data-name="Ellipse 1038" cx="16" cy="16" r="16" transform="translate(755.8 788)" fill="#fff"/>
      <circle id="Ellipse_1039" data-name="Ellipse 1039" cx="16" cy="16" r="16" transform="translate(756.8 785.6)" fill="#fff"/>
      <circle id="Ellipse_1040" data-name="Ellipse 1040" cx="16" cy="16" r="16" transform="translate(757.8 783.2)" fill="#fff"/>
      <circle id="Ellipse_1041" data-name="Ellipse 1041" cx="16" cy="16" r="16" transform="translate(758.7 780.7)" fill="#fff"/>
      <circle id="Ellipse_1042" data-name="Ellipse 1042" cx="16" cy="16" r="16" transform="translate(759.5 778.3)" fill="#fff"/>
      <circle id="Ellipse_1043" data-name="Ellipse 1043" cx="16" cy="16" r="16" transform="translate(760.3 775.8)" fill="#fff"/>
      <circle id="Ellipse_1044" data-name="Ellipse 1044" cx="16" cy="16" r="16" transform="translate(761.1 773.3)" fill="#fff"/>
      <circle id="Ellipse_1045" data-name="Ellipse 1045" cx="16" cy="16" r="16" transform="translate(761.8 770.8)" fill="#fff"/>
      <circle id="Ellipse_1046" data-name="Ellipse 1046" cx="16" cy="16" r="16" transform="translate(762.5 768.2)" fill="#fff"/>
      <circle id="Ellipse_1047" data-name="Ellipse 1047" cx="16" cy="16" r="16" transform="translate(763.2 765.7)" fill="#fff"/>
      <circle id="Ellipse_1048" data-name="Ellipse 1048" cx="16" cy="16" r="16" transform="translate(763.8 763.1)" fill="#fff"/>
      <circle id="Ellipse_1049" data-name="Ellipse 1049" cx="16" cy="16" r="16" transform="translate(764.3 760.5)" fill="#fff"/>
      <circle id="Ellipse_1050" data-name="Ellipse 1050" cx="16" cy="16" r="16" transform="translate(764.8 757.8)" fill="#fff"/>
      <circle id="Ellipse_1051" data-name="Ellipse 1051" cx="16" cy="16" r="16" transform="translate(765.3 755.2)" fill="#fff"/>
      <circle id="Ellipse_1052" data-name="Ellipse 1052" cx="16" cy="16" r="16" transform="translate(765.7 752.5)" fill="#fff"/>
      <circle id="Ellipse_1053" data-name="Ellipse 1053" cx="16" cy="16" r="16" transform="translate(766.1 749.7)" fill="#fff"/>
      <circle id="Ellipse_1054" data-name="Ellipse 1054" cx="16" cy="16" r="16" transform="translate(766.4 747)" fill="#fff"/>
      <circle id="Ellipse_1055" data-name="Ellipse 1055" cx="16" cy="16" r="16" transform="translate(766.7 744.2)" fill="#fff"/>
      <circle id="Ellipse_1056" data-name="Ellipse 1056" cx="16" cy="16" r="16" transform="translate(767 741.4)" fill="#fff"/>
      <circle id="Ellipse_1057" data-name="Ellipse 1057" cx="16" cy="16" r="16" transform="translate(767.2 738.5)" fill="#fff"/>
      <circle id="Ellipse_1058" data-name="Ellipse 1058" cx="16" cy="16" r="16" transform="translate(767.4 735.6)" fill="#fff"/>
      <circle id="Ellipse_1059" data-name="Ellipse 1059" cx="16" cy="16" r="16" transform="translate(767.5 732.6)" fill="#fff"/>
      <circle id="Ellipse_1060" data-name="Ellipse 1060" cx="16" cy="16" r="16" transform="translate(767.6 729.7)" fill="#fff"/>
      <circle id="Ellipse_1061" data-name="Ellipse 1061" cx="16" cy="16" r="16" transform="translate(767.6 727.1)" fill="#fff"/>
      <circle id="Ellipse_1062" data-name="Ellipse 1062" cx="16" cy="16" r="16" transform="translate(767.4 725)" fill="#fff"/>
      <circle id="Ellipse_1063" data-name="Ellipse 1063" cx="16" cy="16" r="16" transform="translate(767.2 722.6)" fill="#fff"/>
      <circle id="Ellipse_1064" data-name="Ellipse 1064" cx="16" cy="16" r="16" transform="translate(766.9 719.9)" fill="#fff"/>
      <circle id="Ellipse_1065" data-name="Ellipse 1065" cx="16" cy="16" r="16" transform="translate(766.7 717)" fill="#fff"/>
      <circle id="Ellipse_1066" data-name="Ellipse 1066" cx="16" cy="16" r="16" transform="translate(766.3 713.9)" fill="#fff"/>
      <circle id="Ellipse_1067" data-name="Ellipse 1067" cx="16" cy="16" r="16" transform="translate(766 710.7)" fill="#fff"/>
      <circle id="Ellipse_1068" data-name="Ellipse 1068" cx="16" cy="16" r="16" transform="translate(765.6 707.8)" fill="#fff"/>
      <circle id="Ellipse_1069" data-name="Ellipse 1069" cx="16" cy="16" r="16" transform="translate(765.1 705.1)" fill="#fff"/>
      <circle id="Ellipse_1070" data-name="Ellipse 1070" cx="16" cy="16" r="16" transform="translate(764.6 702.4)" fill="#fff"/>
      <circle id="Ellipse_1071" data-name="Ellipse 1071" cx="16" cy="16" r="16" transform="translate(764.1 699.8)" fill="#fff"/>
      <circle id="Ellipse_1072" data-name="Ellipse 1072" cx="16" cy="16" r="16" transform="translate(763.5 697.1)" fill="#fff"/>
      <circle id="Ellipse_1073" data-name="Ellipse 1073" cx="16" cy="16" r="16" transform="translate(762.8 694.5)" fill="#fff"/>
      <circle id="Ellipse_1074" data-name="Ellipse 1074" cx="16" cy="16" r="16" transform="translate(762.1 691.9)" fill="#fff"/>
      <circle id="Ellipse_1075" data-name="Ellipse 1075" cx="16" cy="16" r="16" transform="translate(761.3 689.3)" fill="#fff"/>
      <circle id="Ellipse_1076" data-name="Ellipse 1076" cx="16" cy="16" r="16" transform="translate(760.5 686.7)" fill="#fff"/>
      <circle id="Ellipse_1077" data-name="Ellipse 1077" cx="16" cy="16" r="16" transform="translate(759.6 684.2)" fill="#fff"/>
      <circle id="Ellipse_1078" data-name="Ellipse 1078" cx="16" cy="16" r="16" transform="translate(758.7 681.6)" fill="#fff"/>
      <circle id="Ellipse_1079" data-name="Ellipse 1079" cx="16" cy="16" r="16" transform="translate(757.7 679.1)" fill="#fff"/>
      <circle id="Ellipse_1080" data-name="Ellipse 1080" cx="16" cy="16" r="16" transform="translate(756.7 676.6)" fill="#fff"/>
      <circle id="Ellipse_1081" data-name="Ellipse 1081" cx="16" cy="16" r="16" transform="translate(755.6 674.1)" fill="#fff"/>
      <circle id="Ellipse_1082" data-name="Ellipse 1082" cx="16" cy="16" r="16" transform="translate(754.5 671.7)" fill="#fff"/>
      <circle id="Ellipse_1083" data-name="Ellipse 1083" cx="16" cy="16" r="16" transform="translate(753.3 669.2)" fill="#fff"/>
      <circle id="Ellipse_1084" data-name="Ellipse 1084" cx="16" cy="16" r="16" transform="translate(752.1 666.8)" fill="#fff"/>
      <circle id="Ellipse_1085" data-name="Ellipse 1085" cx="16" cy="16" r="16" transform="translate(750.8 664.4)" fill="#fff"/>
      <circle id="Ellipse_1086" data-name="Ellipse 1086" cx="16" cy="16" r="16" transform="translate(749.5 662)" fill="#fff"/>
      <circle id="Ellipse_1087" data-name="Ellipse 1087" cx="16" cy="16" r="16" transform="translate(748.2 659.6)" fill="#fff"/>
    </g>
    <g id="Group_6536" data-name="Group 6536">
      <circle id="Ellipse_1088" data-name="Ellipse 1088" cx="19.5" cy="19.5" r="19.5" transform="translate(789.2 837.9)" fill="#fff"/>
      <circle id="Ellipse_1089" data-name="Ellipse 1089" cx="19.5" cy="19.5" r="19.5" transform="translate(791.3 834.4)" fill="#fff"/>
      <circle id="Ellipse_1090" data-name="Ellipse 1090" cx="19.5" cy="19.5" r="19.5" transform="translate(793.3 830.7)" fill="#fff"/>
      <circle id="Ellipse_1091" data-name="Ellipse 1091" cx="19.5" cy="19.5" r="19.5" transform="translate(795.2 826.9)" fill="#fff"/>
      <circle id="Ellipse_1092" data-name="Ellipse 1092" cx="19.5" cy="19.5" r="19.5" transform="translate(797 823.1)" fill="#fff"/>
      <circle id="Ellipse_1093" data-name="Ellipse 1093" cx="19.5" cy="19.5" r="19.5" transform="translate(798.7 819.3)" fill="#fff"/>
      <circle id="Ellipse_1094" data-name="Ellipse 1094" cx="19.5" cy="19.5" r="19.5" transform="translate(800.4 815.5)" fill="#fff"/>
      <circle id="Ellipse_1095" data-name="Ellipse 1095" cx="19.5" cy="19.5" r="19.5" transform="translate(802 811.6)" fill="#fff"/>
      <circle id="Ellipse_1096" data-name="Ellipse 1096" cx="19.5" cy="19.5" r="19.5" transform="translate(803.5 807.7)" fill="#fff"/>
      <circle id="Ellipse_1097" data-name="Ellipse 1097" cx="19.5" cy="19.5" r="19.5" transform="translate(805 803.9)" fill="#fff"/>
      <circle id="Ellipse_1098" data-name="Ellipse 1098" cx="19.5" cy="19.5" r="19.5" transform="translate(806.4 800)" fill="#fff"/>
      <circle id="Ellipse_1099" data-name="Ellipse 1099" cx="19.5" cy="19.5" r="19.5" transform="translate(807.7 796)" fill="#fff"/>
      <circle id="Ellipse_1100" data-name="Ellipse 1100" cx="19.5" cy="19.5" r="19.5" transform="translate(808.9 792.1)" fill="#fff"/>
      <circle id="Ellipse_1101" data-name="Ellipse 1101" cx="19.5" cy="19.5" r="19.5" transform="translate(810.1 788.1)" fill="#fff"/>
      <circle id="Ellipse_1102" data-name="Ellipse 1102" cx="19.5" cy="19.5" r="19.5" transform="translate(811.2 784.2)" fill="#fff"/>
      <circle id="Ellipse_1103" data-name="Ellipse 1103" cx="19.5" cy="19.5" r="19.5" transform="translate(812.2 780.2)" fill="#fff"/>
      <circle id="Ellipse_1104" data-name="Ellipse 1104" cx="19.5" cy="19.5" r="19.5" transform="translate(813.1 776.2)" fill="#fff"/>
      <circle id="Ellipse_1105" data-name="Ellipse 1105" cx="19.5" cy="19.5" r="19.5" transform="translate(814 772.1)" fill="#fff"/>
      <circle id="Ellipse_1106" data-name="Ellipse 1106" cx="19.5" cy="19.5" r="19.5" transform="translate(814.7 768.1)" fill="#fff"/>
      <circle id="Ellipse_1107" data-name="Ellipse 1107" cx="19.5" cy="19.5" r="19.5" transform="translate(815.4 764)" fill="#fff"/>
      <circle id="Ellipse_1108" data-name="Ellipse 1108" cx="19.5" cy="19.5" r="19.5" transform="translate(816.1 759.9)" fill="#fff"/>
      <circle id="Ellipse_1109" data-name="Ellipse 1109" cx="19.5" cy="19.5" r="19.5" transform="translate(816.6 755.8)" fill="#fff"/>
      <circle id="Ellipse_1110" data-name="Ellipse 1110" cx="19.5" cy="19.5" r="19.5" transform="translate(817.1 751.7)" fill="#fff"/>
      <circle id="Ellipse_1111" data-name="Ellipse 1111" cx="19.5" cy="19.5" r="19.5" transform="translate(817.5 747.5)" fill="#fff"/>
      <circle id="Ellipse_1112" data-name="Ellipse 1112" cx="19.5" cy="19.5" r="19.5" transform="translate(817.8 743.3)" fill="#fff"/>
      <circle id="Ellipse_1113" data-name="Ellipse 1113" cx="19.5" cy="19.5" r="19.5" transform="translate(818 739.2)" fill="#fff"/>
      <circle id="Ellipse_1114" data-name="Ellipse 1114" cx="19.5" cy="19.5" r="19.5" transform="translate(818.2 734.9)" fill="#fff"/>
      <circle id="Ellipse_1115" data-name="Ellipse 1115" cx="19.5" cy="19.5" r="19.5" transform="translate(818.3 730.7)" fill="#fff"/>
      <circle id="Ellipse_1116" data-name="Ellipse 1116" cx="19.5" cy="19.5" r="19.5" transform="translate(818.3 726.5)" fill="#fff"/>
      <circle id="Ellipse_1117" data-name="Ellipse 1117" cx="19.5" cy="19.5" r="19.5" transform="translate(818.2 722.3)" fill="#fff"/>
      <circle id="Ellipse_1118" data-name="Ellipse 1118" cx="19.5" cy="19.5" r="19.5" transform="translate(818.1 718.1)" fill="#fff"/>
      <circle id="Ellipse_1119" data-name="Ellipse 1119" cx="19.5" cy="19.5" r="19.5" transform="translate(817.9 714)" fill="#fff"/>
      <circle id="Ellipse_1120" data-name="Ellipse 1120" cx="19.5" cy="19.5" r="19.5" transform="translate(817.7 709.8)" fill="#fff"/>
      <circle id="Ellipse_1121" data-name="Ellipse 1121" cx="19.5" cy="19.5" r="19.5" transform="translate(817.3 705.7)" fill="#fff"/>
      <circle id="Ellipse_1122" data-name="Ellipse 1122" cx="19.5" cy="19.5" r="19.5" transform="translate(816.9 701.5)" fill="#fff"/>
      <circle id="Ellipse_1123" data-name="Ellipse 1123" cx="19.5" cy="19.5" r="19.5" transform="translate(816.4 697.4)" fill="#fff"/>
      <circle id="Ellipse_1124" data-name="Ellipse 1124" cx="19.5" cy="19.5" r="19.5" transform="translate(815.9 693.3)" fill="#fff"/>
      <circle id="Ellipse_1125" data-name="Ellipse 1125" cx="19.5" cy="19.5" r="19.5" transform="translate(815.2 689.2)" fill="#fff"/>
      <circle id="Ellipse_1126" data-name="Ellipse 1126" cx="19.5" cy="19.5" r="19.5" transform="translate(814.5 685.1)" fill="#fff"/>
      <circle id="Ellipse_1127" data-name="Ellipse 1127" cx="19.5" cy="19.5" r="19.5" transform="translate(813.7 681.1)" fill="#fff"/>
      <circle id="Ellipse_1128" data-name="Ellipse 1128" cx="19.5" cy="19.5" r="19.5" transform="translate(812.8 677)" fill="#fff"/>
      <circle id="Ellipse_1129" data-name="Ellipse 1129" cx="19.5" cy="19.5" r="19.5" transform="translate(811.8 673)" fill="#fff"/>
      <circle id="Ellipse_1130" data-name="Ellipse 1130" cx="19.5" cy="19.5" r="19.5" transform="translate(810.8 669)" fill="#fff"/>
      <circle id="Ellipse_1131" data-name="Ellipse 1131" cx="19.5" cy="19.5" r="19.5" transform="translate(809.6 665)" fill="#fff"/>
      <circle id="Ellipse_1132" data-name="Ellipse 1132" cx="19.5" cy="19.5" r="19.5" transform="translate(808.4 661)" fill="#fff"/>
      <circle id="Ellipse_1133" data-name="Ellipse 1133" cx="19.5" cy="19.5" r="19.5" transform="translate(807.1 657)" fill="#fff"/>
      <circle id="Ellipse_1134" data-name="Ellipse 1134" cx="19.5" cy="19.5" r="19.5" transform="translate(805.7 653.1)" fill="#fff"/>
      <circle id="Ellipse_1135" data-name="Ellipse 1135" cx="19.5" cy="19.5" r="19.5" transform="translate(804.2 649.2)" fill="#fff"/>
      <circle id="Ellipse_1136" data-name="Ellipse 1136" cx="19.5" cy="19.5" r="19.5" transform="translate(802.6 645.4)" fill="#fff"/>
      <circle id="Ellipse_1137" data-name="Ellipse 1137" cx="19.5" cy="19.5" r="19.5" transform="translate(801 641.5)" fill="#fff"/>
      <circle id="Ellipse_1138" data-name="Ellipse 1138" cx="19.5" cy="19.5" r="19.5" transform="translate(799.3 637.8)" fill="#fff"/>
      <circle id="Ellipse_1139" data-name="Ellipse 1139" cx="19.5" cy="19.5" r="19.5" transform="translate(797.5 634)" fill="#fff"/>
      <circle id="Ellipse_1140" data-name="Ellipse 1140" cx="19.5" cy="19.5" r="19.5" transform="translate(795.7 630.2)" fill="#fff"/>
      <circle id="Ellipse_1141" data-name="Ellipse 1141" cx="19.5" cy="19.5" r="19.5" transform="translate(793.8 626.5)" fill="#fff"/>
      <circle id="Ellipse_1142" data-name="Ellipse 1142" cx="19.5" cy="19.5" r="19.5" transform="translate(792 622.8)" fill="#fff"/>
      <circle id="Ellipse_1143" data-name="Ellipse 1143" cx="19.5" cy="19.5" r="19.5" transform="translate(790.1 619.1)" fill="#fff"/>
      <circle id="Ellipse_1144" data-name="Ellipse 1144" cx="19.5" cy="19.5" r="19.5" transform="translate(788.2 615.3)" fill="#fff"/>
    </g>
  </g>
</svg>
